<svg width="31" height="35" viewBox="0 0 31 35" fill="none" xmlns="http://www.w3.org/2000/svg">
<path d="M29.3799 34H28.96L24.2715 22.7119L24.0293 22.1279H24.0303L23.4561 20.7441L18.1758 8.02441L18.168 8.00684L18.1602 7.99023L17.4316 6.37891C17.2249 5.9103 17.0547 5.50932 16.9189 5.17578C16.7828 4.84106 16.6868 4.58663 16.627 4.40527C16.5909 4.29614 16.5763 4.2388 16.5713 4.21973V3.46289L29.3799 34ZM14.4287 4.54688C13.9871 5.90321 13.5658 7.04039 13.166 7.96289L13.1602 7.97852L7.87988 20.7461L7.32129 22.0957H7.32031L7.06445 22.7119L2.37598 34H2.09766L14.4707 4.40234C14.4575 4.44839 14.4426 4.4964 14.4287 4.54688ZM15.7227 1.44043L16.0977 2.33301L14.8633 3.5752C14.8287 3.60998 14.799 3.64466 14.7744 3.67676L15.71 1.44043H15.7227Z" stroke="white" stroke-width="2"/>
</svg>
