<svg width="40" height="35" viewBox="0 0 40 35" fill="none" xmlns="http://www.w3.org/2000/svg">
<path d="M38.542 34H38.1719L34.5508 8.79297L34.5488 8.78027L34.3828 7.64941C34.2423 6.60181 34.1758 5.80352 34.1758 5.24023V5.11426L38.542 34ZM6.02832 8.88281L2.2207 34H1.90625L6.07422 8.5293L6.02832 8.88281ZM17.5186 26.2197L17.5254 26.2344L17.5322 26.25C18.0603 27.3995 18.4746 28.477 18.7793 29.4824L19.5977 32.1826L19.583 32.2119L9.8125 8.55371H9.81348L9.80762 8.54199L9.40234 7.57617C9.01819 6.6428 8.69764 5.80401 8.44141 5.05859L6.61133 5.24219L7.19434 1.68262L17.5186 26.2197ZM33.8711 3.10449L32.4629 4.53906C32.358 4.64588 32.2923 4.76209 32.2783 4.78613C32.2494 4.83601 32.2217 4.88952 32.1973 4.93848C32.1476 5.03802 32.0883 5.16527 32.0225 5.31348L32.0107 5.34082L32 5.36816C31.9166 5.59053 31.7368 6.01311 31.4482 6.6543L31.4434 6.66504L31.4385 6.67676C31.1874 7.27305 30.9203 7.90112 30.6377 8.56055L20.4609 30.3359L20.7012 29.4551C20.7249 29.3684 20.8373 29.0784 21.0928 28.5098C21.214 28.2399 21.3603 27.9222 21.5322 27.5566L22.125 26.3145L22.1299 26.3047L33.6611 1.71094L33.8711 3.10449Z" stroke="white" stroke-width="2"/>
</svg>
