<svg width="28" height="36" viewBox="0 0 28 36" fill="none" xmlns="http://www.w3.org/2000/svg">
<path d="M2.27148 1.67969V20.9014L2.28223 21.6816V21.6963C2.3942 25.6612 3.34868 28.8311 5.29102 31.0508C7.25207 33.2919 10.0893 34.416 13.6406 34.5469L13.6504 34.5479H13.6602L14.3418 34.5596H14.3594C18.138 34.5596 21.1655 33.5133 23.2646 31.2695C25.2175 29.182 26.2357 26.1962 26.4512 22.4551L26.4844 21.6963V21.6826L26.4961 20.9023V1.67969H26.7998V20.8877L26.7871 21.7031C26.6626 25.7214 25.6092 28.8016 23.7227 31.0439L23.5371 31.2549C21.5754 33.4155 18.5955 34.5747 14.4102 34.5752L14.0059 34.5723H14.0068C10.1577 34.5013 7.34475 33.405 5.41699 31.4053L5.2334 31.209L5.03711 30.9863C3.2722 28.8841 2.23839 26.0609 2.01367 22.4346L1.98047 21.6973L1.96777 20.873V1.67969H2.27148Z" stroke="white" stroke-width="2"/>
</svg>
