<svg width="50" height="36" viewBox="0 0 50 36" fill="none" xmlns="http://www.w3.org/2000/svg">
<path d="M2.5957 1.67969L11.1494 26.8262L11.1553 26.8438C11.5646 27.9773 11.8921 28.9922 12.1396 29.8896L12.1436 29.9053L12.1484 29.9209C12.434 30.841 12.5995 31.3677 12.6357 31.4766L13.5293 34.1592L13.5039 34.2227L2.1748 1.67969H2.5957ZM34.2861 27.21C34.9564 29.2209 35.3928 30.6434 35.6064 31.498L37.4531 31.4912L36.5264 34.1738L27.9199 9.51855C27.7922 9.10632 27.6496 8.69405 27.4922 8.28223L27.166 7.20898C27.1139 7.03539 27.0598 6.87031 27.0049 6.71484L27.3291 6.7666L26.7959 5.19727L26.7109 4.94727L26.3916 4.00977L34.2861 27.21ZM24.2939 6.28418L24.4512 6.30859C24.2292 6.93721 23.9784 7.61526 23.6953 8.3418L23.2656 9.4248L23.2617 9.43359L14.4814 31.7402L14.5615 31.373C14.699 30.7407 15.2041 29.3373 16.1396 27.0791L16.1436 27.0703L16.1465 27.0615L24.6904 5.26855L24.2939 6.28418ZM47.749 1.67969L37.9346 30.0957C38.0743 29.6302 38.2356 29.1146 38.4238 28.5498L38.8633 27.2666L38.8682 27.2539L47.4707 1.67969H47.749Z" stroke="white" stroke-width="2"/>
</svg>
